<svg xmlns="http://www.w3.org/2000/svg" viewBox="0 0 900 600" role="img" aria-labelledby="title">
  <title>China flag</title>
  <rect width="900" height="600" fill="#de2910"/>
  <g fill="#ffde00">
    <path d="M150 78 172 145 243 145 185 186 207 253 150 212 93 253 115 186 57 145 128 145z"/>
    <path d="M295 72 306 94 330 98 313 116 317 140 295 129 273 140 277 116 260 98 284 94z" transform="rotate(23 295 106)"/>
    <path d="M360 135 371 157 395 161 378 179 382 203 360 192 338 203 342 179 325 161 349 157z" transform="rotate(45 360 169)"/>
    <path d="M360 225 371 247 395 251 378 269 382 293 360 282 338 293 342 269 325 251 349 247z" transform="rotate(70 360 259)"/>
    <path d="M295 288 306 310 330 314 313 332 317 356 295 345 273 356 277 332 260 314 284 310z" transform="rotate(20 295 322)"/>
  </g>
</svg>
