<svg xmlns="http://www.w3.org/2000/svg" fill="none" height="512" viewBox="0 0 36 36" width="512"><g id="36 Multicolor / Flag / mc_36_flag_nepal"><g id="mc_36_flag_Nepal"><path id="Oval" d="m18 36c9.9411 0 18-8.0589 18-18 0-9.94113-8.0589-18-18-18-9.94113 0-18 8.05887-18 18 0 9.9411 8.05887 18 18 18z" fill="#f0f0f0"/><path id="Shape" d="m35.884 19.956-19.73-19.8629824c-.8799.0894804-1.7519.2439014-2.609.4620004-7.787 1.983002-13.545 17.444982-13.545 17.444982s25.2 16.863 28.075 14.918c.5744-.3887 1.126-.81 1.652-1.262l-11.7-11.7h17.866z" fill="#0052b4"/><path id="Path" d="m31.304 17.9999-17.506-17.506004c-7.914 1.893004-13.798 9.012004-13.798 17.506004 0 9.94 8.06 18 18 18 3.77 0 7.27-1.16 10.162-3.142l-14.858-14.858z" fill="#d80027"/><path id="Shape_2" clip-rule="evenodd" d="m15.652 9.98299-1.6-.752.85-1.548-1.736.332-.22-1.754-1.2 1.3-1.2-1.3-.22 1.754-1.73601-.332.85 1.548-1.6.752h-.797c0 2.59401 2.102 4.69601 4.69601 4.69601 2.594 0 4.696-2.103 4.696-4.69601zm0 0h-7.81201l3.91301.78301zm1.468 16.59501-2.198-1.034 1.17-2.13-2.387.457-.302-2.412-1.663 1.774-1.663-1.774-.30301 2.412-2.387-.457 1.17 2.13-2.198 1.034 2.198 1.034-1.17 2.13 2.387-.457.30201 2.4 1.663-1.774 1.663 1.774.302-2.4 2.387.457-1.17-2.13z" fill="#f0f0f0" fill-rule="evenodd"/></g></g></svg>