<svg xmlns="http://www.w3.org/2000/svg" xmlns:sketch="http://www.bohemiancoding.com/sketch/ns" height="180" viewBox="0 0 180 180" width="180"><g id="Page-1" fill="none" fill-rule="evenodd"><g id="Flat"><g id="Slice"/><g id="circle_kazakhstan"><path id="Path-copy" d="m90 180c49.70563 0 90-40.29437 90-90 0-49.7056299-40.29437-90-90-90-49.7056299 0-90 40.2943701-90 90 0 49.70563 40.2943701 90 90 90z" fill="#4086cd"/><g id="birth" transform="translate(41 52)"><g fill="#e5b731"><circle id="Oval" cx="49" cy="21" r="21"/><path id="Shape" d="m47.9998657 57.7867779-.3624133.7309579-.4026885.9340052-.2416037.4466947-.2013442.4060947-.1610692.3248789-.2013442.2030474-.4832231-.4060947-.5234981-.365479-.5637576-.2842631-.6040171-.2436631-.6443078-.1624316-.6442921-.1624316-.6442922-.1218268-.6845673-.081219-1.409394-.1218268-1.409394-.0406095-1.3691346-.0812189-1.2886-.1624316-.7248267-.1218268-.6845673-.1624316-.3624134-.1218284-.3624133-.1218268-.3221539-.1624316-.2818788-.1624316-.442948-.2842631-.4429479-.3248789-.4832231-.365479-.4429479-.4060947-.926171-.8934051-.926171-.8934052-.926171-.8527894-.8456364-.7715737-.4026884-.2842631-.4026885-.2842631-.3624134-.1624316-.3624134-.1218269-.6845672-.1624315-.6040327-.2030474-.6040327-.2030473-.6040327-.2842632-.5234982-.2436473-.5234825-.3248789-.483223-.3248789-.442948-.3248789-.483223-.365479-.4026885-.3654789-.4026884-.4060947-.4026885-.4060947-.7651018-.8527894-.7248268-.8934052-1.4496691-1.9086262-1.5302037-1.9492419-.8859115-.9340052-.926171-.9340052-.5234825-.4873105-.5234825-.4466947-.5637576-.4060947-.6040327-.4466947-.120805.0406079-.1208065.1218284-.120805.1624316-.0805377.2030473-.120805.3654789-.0402688.1624316-.2818788-.1218268-.2416194-.1218284-.2818788-.1218269-.2416193-.0812189h-.5234825l-.28187881.0812189-.2818788.1218269.2818788.3654789.36241338.4873105.36241333.5685263.3221539.609142.3221539.6497421.2416194.609142.0805361.3248789.0805377.2436631.0402688.2842632v.2436631h-.4429479-1.73151671l.32215389.4873105.36241338.4873104.40268844.4873105.442948.4466948.4429479.4466947.442948.4466947.4429479.3654789.4026885.2842632-.442948.0406094-.6040327.0406095-.6040327.0812189-.4429479.0406079.3624134.3248789.4429479.3248789.483223.365479.5234826.3654789.5234825.3248789.5234981.2842631.483223.1624316.442948.1218269.2013442.0406094.1610692.0406095.1208049.0406095.0805377.0812173.0402673.0406095v.1624316l-.0402673.0812189-.0805377.2436474-.0402688.2436631-.0402688.1624316v.1218284l.0402688.2030473.0402688.1624316.0805377.0812174.120805.0812189.1610692.0812174.2013442.0406095.2013442.0812189.2013443.0812174.2013442.0812189.1610691.1218268.0402689.0406095v.0812174l-.0402689.0406094-.1610691.1218284-.1610691.1218269-.1610692.1624316-.1610691.2030473v.1624316l-.0402673.1624316.0402673.2030473.0402688.2436631.6845673.2436631.7248267.2436474.3221539.081219.3221539.1218268.2416193.1218284.2013443.1218268-1.3288595 1.0558368.3624134.3248789.442948.2436631.5637576.2842632.5637576.2030473.6442922.2030473.6040327.1218269.5234825.1218268h.483223l-.4429479.3248789-.5637576.3654789-.6040327.324879-.442948.3248789.4026885.2842631.5637576.2842631.6442922.3248789.7651018.365479 1.7717918.7715736 1.9328921.7715736 2.0134424.7309579 1.9731672.649742.8859115.2842632.8053769.2030473.7248268.2030474.6442922.1218268-1.2885844-.1218268-1.2080498-.1624316-1.2080498-.2030474-1.1275152-.2436631-1.1275152-.3248789-1.0872557-.3248789-1.0469807-.3654789-1.0067055-.4060947-1.9731673-.8121894-1.8523419-.8121894-.8859115-.3654789-.8859115-.3654789-.8456365-.3248789-.8456364-.324879.2013443-.1218268.2416193-.0812189.3221539-.1218269.3624134-.0812189.7651018-.2436631.6845673-.2436474-1.2080498-.2030473-1.6509665-.3248789-.805377-.2436632-.6845672-.2030473-.2818788-.1218268-.2416194-.1218284-.2013442-.1218269-.120805-.1218284v-.0406079l.0402689-.0406094.1208049-.0406095.120805-.0812174.3221539-.1218284.442948-.1218268.966446-.2842632.805377-.2842631-1.9731673-.3654789-1.5302037-.2436631-.5637576-.1218269-.4429479-.1624316-.1610691-.0812189-.1610692-.1218268-.1208065-.081219-.0805362-.1218268.120805-.0812189.3624134-.0812174.5234825-.0812189.6040327-.1218269.6442922-.0812189.5637576-.1624316.2818788-.0812174.2416193-.0812189.1610692-.1218268.1610691-.1218284-.3221539-.1218269-.3221539-.1218268-.4026884-.081219-.4026885-.0812189-.926171-.1218268-.926171-.1218269-.483223-.1218284-.44294797-.0812173-.44294794-.1624316-.44294795-.1624316-.40268847-.2030473-.36241337-.2842632-.3221539-.2842631-.24161932-.3654789.08053613-.0406095.16106914-.0406095h.20134424l.32215389.0406095.72482675.0406095.80537694.0406078.88591153.081219h1.1275152l.3221539-.0406095.2416193-.0812173.1610691-.081219-.966446-.4060947-1.2885844-.5685263-.72482674-.3654789-.76510184-.3654789-.76510184-.4060947-.76510184-.4060947-.72482675-.4466947-.68456728-.4873105-.64429217-.4873105-.56375761-.4873105-.24160372-.2842631-.24161932-.2436474-.16106914-.2436631-.16106915-.2842631-.16106914-.2436474-.08053613-.2842632-.04026885-.2436631-.04026884-.2842631h.2818788l.3221539.0406095.32215389.1218268.3221539.1218268.64429218.4060947.72482675.4060947.32215389.2030474.36241338.2030473.36241337.1624316.3221539.1218268.36241337.081219.3221539.0406094h.36241337l.3221539-.1218284-.96644607-.7309578-1.08725574-.9340052-1.24832488-1.0964526-1.24832488-1.2182683-1.24832488-1.2994841-1.16779031-1.2994842-.52348252-.6903578-.52348251-.6497421-.44294795-.649742-.40268847-.6091421-.08053613-.1624315v-.2842632l.04026729-.1218284.04026884-.1218268.12080654-.0812174.12080498-.1218284.12080498-.0812174.16106914-.0406094.16106915-.0406095h.32215389l.20134423.0406095.16106915.0406094.16106914.1218269.12080498.1218268.72482675.7309579.84563641.8527894.8859115.9340052.96644608.9340052.96644607.8527894.96644608.8121894.48322304.3248789.44294794.2842631.48322304.2436474.44294795.1624316-.3221539-.2030474-.36241337-.3654789-.48322304-.4873105-.52348252-.609142-1.16779031-1.4213157-1.28858436-1.6649316-.64429218-.8934052-.6040327-.8934052-.5637576-.8934051-.56375761-.8527894-.48322304-.8121894-.40268847-.7309579-.2818788-.6903578-.24161933-.5685263-.04026884-.2030473v-.324879l.04026884-.1218284.0805377-.1218268.08053613-.1218268.08053769-.081219.12080498-.0812189.28187881-.0812174.24160371-.0812189h.56375761l.16106914.0406095.12080498.0406094.16106914.0812174.12080498.1218284.3221539.2842631.32215389.4060947.72482675.9340052.76510185 1.1776684.8859115 1.2588841.92617098 1.2994841.48322304.609142.48322304.6091421.52348252.5279105.56375761.4873105-.68456728-1.3400999-.76510184-1.5431473-.40268846-.8527894-.36241338-.8527894-.36241338-.8934052-.32215389-.8934052-.2818788-.9340052-.28187881-.8934051-.20134423-.8934052-.16106914-.8934052-.0805377-.8527894-.04026884-.8121894.04026884-.4060947.04026885-.3654789.04026885-.365479.08053613-.3654789.08053769-.1218268.04026885-.1218269.12080498-.1218284.08053613-.0812173.2818788-.1218284.28187881-.0812174h.2818788l.24161933.0406095.12080497.0406079.0805377.0406094.04026728.081219.04026885.1218268.40268847 1.2994841.36241337 1.3807157.36241338 1.4213157.36241337 1.3807157.36241338 1.3807156.48322304 1.2994842.24160371.609142.2818788.609142.32215388.5685263.3624134.5685263-.2416193-1.1776683-.1610692-1.0558368-.16106911-.974621-.08053614-.8934051-.08053769-.7715737-.04026885-.6903578.04026885-.5685263.04026885-.4873105.08053613-.4060946.12080656-.324879.0805361-.1218268.0805377-.1218268.0805361-.081219.1208066-.0812189.120805-.0406079h.3624133l.3221539.1218268.3221539.1624316.2818788 1.2994842.2818788 1.2588841.3221539 1.1776683.3624134 1.1370525.4026885 1.1370526.4429479 1.1370525.4832231 1.1776684.5637576 1.1776683.4026884.7715736.4026885.7715736.4429479.7715736.442948.7715737.483223.7309578.4832231.7309579.5234981.7309578.5234825.7309579.9664461 1.2182683 1.0067055 1.1370526 1.0469807 1.1370525 1.0872557 1.0558368 1.1275152 1.0558368 1.1677903.9746209 1.2080498.9340052 1.2483249.8934052.8456364.5685263.8859115.5279262.926171.5279106.8859115.4873104 1.409394.6903579 1.3691346.649742 1.4496691.5685263 1.4496535.5279105 1.3691345.4466947 1.4093941.365479 1.4496691.3248789 1.409394.2842631 1.4899442.2030474 1.4496691.1624315 1.4899286.1218269 1.4899286.0812189"/><path id="Shape" d="m51.8853211 70.4836194.7018337.0819664.3302794.1229518.0825658.0409823v.040984h-.0825658l-.0825819.0409839-.6605427.1229503h-.536686l-1.7338987-.1229503-2.1055169-.0409839-2.2706807-.040984-2.3532625.040984-1.1146789.0409839-1.1146629.0819663-.9908221.0819679-.9495312.0819679-.7843995.1229503-.7018336.1639294-.2477135.0819679-.2476976.0819663-.2064226.0819679-.1651317.1229502.0825659-.4098394.1651317-.4098395-.2889885.0819679-.2889884.0819679-.2476976.1229502-.2477135.1229503-.2064226.1229518-.1651317.1639294-.1238535.2049198-.041283.2049197-.1238535-.2868844-.0825675-.2459101-.0412845-.2868844-.0412845-.24591.0412845-.2049198.0412845-.2458941.041283-.2049197.1238535-.2049197.0825675-.1639295.1651317-.2049197.1651316-.1639294.1651317-.1639294.4541201-.2868845.4954111-.2868844c.2675108.1610696.5682783.2778125.8669813.3688491.2589966.0341125.5671581-.0075625.8669654-.0819679.5038133.4404392 1.1775915.3862303 1.6100259-.0819679.0789329-.085452.1742061-.2163747.2064226-.3278747.0682901-.2363774.0551346-.546013 0-.8196789l.495411-.0409839.5779769-.0819679.6192679-.1639295.6605427-.1639294.6605427-.1229502.6192678-.1639295.5779769-.0819663.4954111-.0409839-.2064226.1639294-.4954111.3688492-.5779769.4508138-.4128452.2868845.536702.1229518.4541201.0819663-.3302633.3688492-.3302794.3688491-.3302794.3688492-.2476975.3278747.3302634.1229503.3302793.0819678.3715543.0819663h.7431246l.3715543-.0819663.3715543-.0819678.2889884-.1639295.3302794.1639295.3302634.1229502.3302793.0819679.3302794.0819679.7431086.0819663.7843995.0819679h3.13763"/><path id="Shape" d="m39.5294279 68 .1764531.0625005.176476.0625004.0588329.1874989.0588101.187499-.0588101.1875014-.0588329.1874989-.176476.1250009h-.411762l-.117643-.1250009-.1176431-.1874989-.0588329-.1875014.0588329-.187499.1176431-.1874989.117643-.0625004z"/><path id="Shape" d="m39.1213475 68 .0808931.0405061.0404544.0810107-.0404544.0810122-.0808931.0405061-.0808931-.0405061-.0404544-.0810122.0404544-.0810107z"/><path id="Shape" d="m70.0049535 72.2297803-.2874402.1216207-.2874402.0405408-.2463704.0405408-.2053167-.0405408-.2053167-.0405408-.2053167-.0810799-.164247-.0810816-.2053167-.1216207-.3285098-.243251-.328494-.2432509-.1642629-.1216207-.2053167-.08108-.1642469-.0405408h-.2053167l-.3695637.7702684-.4927568.9729723-.164247.243251-.1642629.2027038-.164247.1216208-.164247.1216223-.2053167.08108h-.2053166l-.2053167-.08108-.2463705-.1216223-.0821235-.1216208-.0821394-.1216207-.0821235-.1621568-.0821235-.2027039-.0821234-.3648607-.0410698-.2432509-.2463704.2027039-.2463864.2837822-.2053008.3243294-.2463864.3648606-.2874401.3648607-.2874402.2837823-.164247.1621568-.2053167.1216223-.2053166.08108-.2463864.0810816h-.1231773l-.2053167.0405407-.2053167-.0405407-.1642469-.0810816-.4927569-.5675645-.5338265-.5675646-.3695637.5675646-.4106334.4864861-.2053167.2027039-.2053166.2027038-.2053167.1621569-.2053008.1216207-.1642629.0810816-.2053167.0405392h-.2053166l-.164247-.0405392-.164247-.0810816-.1231932-.1216207-.164247-.2027039-.0821235-.2432509-.0821394-.243251-.1642469-.4054077-.0410538-.2027039-.0821394-.1621568-.0821235-.08108h-.0821235l-1.1087069 1.7837564-.164247.1621568-.2874402.1216223-.3285098.08108-.328494.0810815h-.3695637l-.2874401-.0810815-.0821394-.0405392-.1231773-.1216223-.0410697-.08108v-.1621568l.164247-1.7837564-.1231773.0405408-.1642629.08108-.164247.0810815-.164247.1621568-.3285098.3648607-.3695637.4054078-.3695637.445939-.451703.3648607-.2053167.1621568-.2053008.1621568-.2463864.1216208-.2053166.0405408-.2874402.0405407-.2053167-.0405407-.0821235-.0405408-.0821235-.08108-.0410697-.1216223v-.1216208l.0410697-.5270174.0821235-.5270175.0410697-.2837823-.0410697-.2432509-.0410538-.2432353-.1642629-.2837822-.2463704.3648606-.4106334.5270333-.4927568.5270174-.5338107.5270175-.2874561.2027039-.2874401.2027039-.2463705.08108-.2053167.0810815-.0821235-.0405408h-.1231932l-.0821235-.08108-.0410697-.0405407-.0821235-.1216223-.0410537-.1216208v-.1621568l-.0410697-.2027039.0410697-1.5405368-1.0265835.68919-1.2318841.7702684-.2874402.1216223-.3285099.1621568-.2874401.08108-.328494.0810816-.2874402.0810815h-.2874561l-.2874401-.0405408-.2463705-.0810815.1231932-.3243293.1231773-.2837823.1231932-.2837823.1642469-.2432509.1642629-.2432352.164247-.243251.2053167-.2027038.2053167-.2027039.4516871-.3243293.5338266-.3243294.5338106-.2432509.6159501-.2027039.61595-.1621568.6980576-.1216223.6980736-.1216208.6980735-.0810799 1.5193403-.0810816 1.5603781-.0405408h3.1208199l.780197-.0405407.7391433-.0405392.7391273-.0405408.6980735-.0810816.6980736-.1216207.61595-.1216208.6159342-.1621568.5748803-.2432352.5338266-.2432509.4516871-.3243294.4517031-.3243293.3695636-.4459391-.4106333-.8108155.3285098-.0405407.328494-.08108.3285099-.1621568.2874401-.2027039.1231932-.0810815.1231773-.1216208.0821394-.1621568.0821235-.1216223.0410538-.1621568v-.2837823l-.0821235-.1621568.6980735-.1216223.7391274-.08108.780197-.0405408h.8212667l1.6835395.0810815 1.7246092.1216208 1.7656789.2027039 1.7246092.1621568 1.6835395.1621568 1.560394.0810815v.5675646l-.0410697.2432352-.0821235.2432509-.0821235.243251-.0821235.2027038-.1231932.1621568-.1642469.2027039-.2874402.2837823-.3695796.2432509-.3695637.1621568-.4106333.0810816-.4516872.08108-.4516871-.0405408-.4106334-.0405392-.4516871-.1216223-.4106334-.2027039-.4106334-.2027039-.3285098-.2837823-.328494-.3243293v.68919l-.1231932.8918939-.0821235.4459391-.1231932.4054077-.0821235.1621569-.1231931.1216207-.0821235.1216208-.1231932.0810815m-33.0047471-3.6380598.9340988.4083518.2436677-.2041759.324906-.2450016.3655094-.2041759.324906-.204176 1.2183698-.490019 1.0559248-.490019.5279703-.2041759.4467319-.2450175.446732-.2450016.3655093-.2450174.9340988-.6125278.9340831-.6125277.8934796-.5716862.8122414-.5716863.6091928-.490019.4873511-.4491775.5279545-.4900191.5685894-.5308447.2030485-.2041759.2436834-.1633344.2842869-.1633344.324906-.1633344.6903996-.3266846.6904154-.2450016.9340988-.2450175 1.0153056-.2450174 1.0559247-.2041759 1.1777665-.2041759 1.4214342-.1633344 1.4214341-.2041759 1.4620533-.1633344 1.4214342-.2450016.4873511-.0816704.4467477-.122504.4873511-.1225055.4873511-.122504.4873353-.6125277.7716379-.8575294.5279703-.5308447.6091928-.490019.6904154-.5308448.8122413-.5308447 1.2183699-.7350206 1.2996082-.6533535 1.3402116-.6941949 1.2996082-.6125278 1.2183698-.6125277 1.1371474-.5716862.934083-.4900191.7310345-.490019.2030643-.6125278.2842868-.6125277.3655094-.6125278.446732-.6125277.4873511-.6533534.6091928-.6533535.6497962-.7350206.8122571-.7758622.7310188-.6533534.7716379-.6533534.4061286-.2858432.4061285-.2858431.4467319-.2450174.446732-.2450174.4467477-.2041759.4467319-.1633344.4873511-.122504.446732-.1225056.4873511-.0408336.4467477-.0408352.4873511.0408352.4467319.0816688-.0406191.4900191-.121826.490019-.1624609.490019-.2030485.5308606-.2843026.5308447-.3655093.5308447-.446732.5716862-.5279702.5716863.4061285-.0408352.3655094-.0816688.2842868-.0816704.2842868-.1225039.2436835-.0816704.2842868-.0816704.3655094-.0408336.4061285-.0408351.0406192.2858431v.2858431l-.0406192.2858431-.0812225.2450174-.1218417.2450175-.1624452.2450016-.1624608.2041759-.2030485.2041759-.8528763.8167037-.8528605.7758621.4873511.0408352.5279703.1633344.5279545.1633344.4061285.0816688-.4873511.3675103-.5685736.3675103-.5685737.3675103-.6497962.3675104-.649812.3675103-.6497962.4083518-.6497962.4491775-.6091928.4900191.2842868.0408336.3655094.1633344.1624609.0408352.1624451.0816703.1218417.0408352.1218417-.0408352-.8122571.4491775-1.0153056.4900191-.4873511.2450016-.4061285.2450174-.2030643.1225056-.1218417.1225039-.0812226.122504-.0812225.1225055.0406034.1633344.0812383.122504.1624451.122504.1218417.1225055-.0406192.1633344-.0812225.122504-.1624451.1225055-.1624609.122504-.3655094.2041759-.4873511.2041759-.4873511.1633344-.4467319.1633344-.324906.1633344-.2436677.1225056.8122413.8167037-.2842868.2858431-.2842868.2041759-.2436677.122504-.2842868.1225039-.5685737.0816704h-.7716379l.0812225.3675103.1218418.3675103.0812225.4083519.0812226.4083518-.6904154.5308447-.8528605.6125278-.934083.6125277-1.0559248.6125278-.6091928.3266846-.6091928.2858431-.6497963.2450016-.6904153.2450174-.7310188.2450175-.7716379.1633344-.8122571.1633344-.8528605.1225055 1.5026567.0408336h1.2996082l1.2183699-.1225039 1.0965439-.122504 1.0153056-.2041759.8934796-.2450175.8934797-.3266846.8528605-.3266846 1.1371473-.5308447 1.0965439-.6125278 1.0559248-.6533534 1.0965281-.6533535-.6497962-.3266846-.6497962-.2041759-.324906-.122504-.3248902-.1633344-.3655252-.1633344-.3655093-.2041759.3249059-.2450174.3655094-.1633344.446732-.1633344.4873511-.1225056.9747022-.2041759 1.0153213-.1225055.8934639-.122504.8122571-.0816704.324906-.0816688.2842868-.0816703.1624451-.0816688.1218418-.1225056-.0406192-.0408351-.0812226-.0816688-.1218417-.0408352-.1624451-.0816688-.4467319-.0816704-.5685894-.0816703-.5685737-.0408336-.5685737-.0816704-.4873511-.122504-.3248902-.1225055 1.0965282-.2450016 1.0965439-.2450174.9747022-.204176.8122413-.2041759.6904154-.2041759.6091928-.2450174.2842868-.122504.2030643-.122504.2030643-.1225055.1624451-.1633344-.0406192-.0408336-.0812225-.0816704-.1624451-.0408352-.2030643-.0408351-.5279545-.0408336h-.6091928l-.6497962-.0408352-.6091929-.0408352-.5279702-.0816704-.3248902-.0816688.2842868-.1225039.2842868-.1225056.9747022-.2858431.8528605-.2450174.7716379-.2041759.7310188-.2450175.771638-.2450016.7716379-.3266846.3655094-.2041759.324906-.2041759.1218417-.1225056.1218417-.1633344.1218259-.122504.0406192-.1225055-.0406192-.122504-.1218259-.0816688-.1218417-.0408351h-1.1371474l-.5279702.0408351h-.7310188l-.2030643-.0408351-.1624451-.0816704-.1624608-.0816688 1.6244511-1.0617053 1.5026725-.980038 1.3402116-.8575294 1.1777665-.8167036.4873511-.4083519.4467319-.4083518.3655094-.4083518.324906-.4083519.2436677-.4491775.2030642-.4491775.1218418-.490019v-.5308448h-.2842869l-.2842868.0408352-.324906.122504-.324906.1225055-.6497962.4083519-.6904154.4083518-.3655094.2041759-.3248902.2041759-.3655251.1633344-.3655094.1225056-.3248903.0816688-.3249059.0408352h-.3655094l-.324906-.122504.9747022-.7350207 1.0965439-.9391965 1.2589733-1.1025468 1.258989-1.2250397 1.2589891-1.3067068 1.1777664-1.3067069.5279703-.6941949.5279545-.6533535.4467477-.6533534.4061128-.6125278.0812225-.1633344.0406192-.1225055-.0406192-.1633344-.0406034-.122504-.0406191-.1225055-.121826-.0816688-.1218417-.1225056-.1218417-.0408336-.1624451-.0816703-.1624609-.0408352h-.3248902l-.1624451.0408352-.2030643.0408351-.1218417.122504-.1624451.1225056-.7310346.7350206-.8528605.8575294-.8934796.9391965-.9747022.9391966-.9746865.8575293-.9747022.8167037-.4873511.3266846-.4467477.2858431-.4873511.2450175-.4061128.2041759.2842869-.2450175.3655094-.3675103.4873511-.490019.5279545-.6125278 1.1777664-1.4292155 1.2996082-1.6741856.6497963-.8983708.6091928-.8983709.609177-.8575294.5279703-.8983708.4873511-.8167037.4061128-.7350206.324906-.694195.2030642-.5716862.0406192-.2041759v-.3266847l-.0406192-.1225055-.0812225-.122504-.0812226-.1225039-.0812225-.0816704-.1218418-.0408352-.2436834-.122504-.2842868-.0816703h-.5685737l-.1624451.0408352-.1218417.0408351-.1624451.0816704-.1218417.122504-.324906.2858431-.3248902.4083518-.7310346.9391966-.7716379 1.184214-.8528605 1.2658811-.934083 1.3067069-.5279703.6125278-.4873354.6125277-.5279702.5308447-.5685737.4900191.7310188-1.3475484.7310345-1.5517243.4061286-.8575294.3655094-.8575293.3655094-.8983709.3249059-.8983709.2842869-.9391965.2842868-.8983709.2030643-.8983708.1624451-.8983709.0812225-.8575294.0406192-.8167036-.0406192-.4083519-.0406191-.3675103-.0406034-.3675103-.0812226-.3675103-.0406191-.1225056-.0812226-.1225039-.1218417-.122504-.0812226-.0816704-.2842868-.1225039-.2842868-.0816704h-.2842868l-.2436835.0408352-.0812225.0408352-.121826.0408336-.0406191.0816703-.0406192.122504-.4061128 1.3475484-.3655251 1.3475484-.3655094 1.4292156-.3655094 1.3883899-.3655094 1.3883899-.4873511 1.3067068-.2436834.6533535-.2842869.5716862-.3248902.6125277-.3655251.5308448.2436834-1.184214.1624451-1.0617053.1624609-.9800381.0812225-.8983708.0812226-.7758622.0406034-.6941949-.0406034-.5716863-.0406192-.490019-.0812225-.4083518-.1218417-.3266847-.0812226-.1225039-.0812225-.122504-.0812226-.0816704-.1218417-.0408351-.1218417-.0408336-.121826-.0408352h-.1218417l-.1218417.0408352-.3248903.0816687-.3249059.1633344-.2842869 1.3067069-.2842868 1.2658812-.324906 1.184214-.3655094 1.1433725-.4061285 1.1433724-.446732 1.1433725-.4873511 1.184214-.5685736 1.184214-.4061286.7758621-.4061285.7758622-.446732.7758621-.4467319.7758622-.4873511.7350206-.4873511.7350206-.5279703.7350207-.5279545.7350206-.9747022 1.2250397-1.0153213 1.1433724-1.0559248 1.1433725-1.0965282 1.0617053-1.1371473 1.0617052-1.1777664.9800381-1.2183857.9391966-1.258989.8983708-.8528605.5716863-.8934639.5716862-.8934796.5308447-.8934797.5308447-1.4214341.6533535-1.4214342.6533534-1.4620533.5308447-1.4620533.5308447-1.2183699.3675104-1.2183856.3675103-1.258989.2858431-1.2589733.2858431-1.2589891.2041759-1.2996081.1633344-1.2589891.1633344-1.2995924.0816688-.1218417.0408352-.1218417.0408352-.2436677.122504-.2842868.2041759-.4061286.3675103-.5279702.490019-.6497963.6533535-.7716379.8575293-.7310188.8575294-.8528605.9391965-.4467477.4491775-.4467319.4491775-.5279703.4083519-.5279545.4083518-.4061285.2858431-.4061285.2450175-.446732.2041759-.4467319.2041759-.9747022.4083518-.9747023.3675103-.9747022.3675104-.8528604.3266846-.3655094.1633344-.3655252.2041759-.3248902.1633344-.2436834.1633344-.2436677.2450174-.2030643.204176-.1218417.2041759-.0812225.2041759-.0406192.2858431v.1633344"/></g><path id="Shape" d="m39 68.1514646c0-.0836927.0677846-.1515227.151359-.1514646.0835744-.0000581.1513434.0677719.1513434.1514646 0 .0836926-.067769.1515211-.1513434.151463-.0835744.0000581-.151359-.0677704-.151359-.151463 0 0 0 .0836926 0 0z" fill="#fec50c" stroke="#00afca" stroke-width=".381"/></g><g fill="#e5b731"><path id="be" d="m87.3510359 49.9009627c1.4572166-.0175147 2.0036728-.8932458 2.0036728-1.9441231 0-1.4011698-2.0036728-8.0742409-2.0036728-8.0742409s-2.0036728 6.6730711-2.0036728 8.0742409c0 1.0508773.5464563 1.9441231 2.0036728 1.9441231zm4.5321926-.083229c1.4337853.2608572 2.137299-.4945155 2.3378158-1.5260852.2673558-1.3754264-.4262218-8.3082132-.4262218-8.3082132s-3.2401417 6.1681492-3.5074976 7.5435756c-.2005168 1.0315697.1654602 2.0126728 1.5959036 2.2907228 0 0-1.4304434-.27805 0 0zm4.4648042.7830833c1.3576687.5296437 2.1923888-.077614 2.5860544-1.0519704.5248874-1.2991421 1.1668909-8.2368949 1.1668909-8.2368949s-4.3575496 5.4365748-4.8824371 6.7357168c-.3936655.9743565-.2216159 2.0072656 1.1294918 2.5531485 0 0-1.3511077-.5458829 0 0zm4.6012563 1.8076554c1.217881.8003448 2.160616.3799053 2.748259-.4913115.783525-1.1616224 2.853939-7.8142887 2.853939-7.8142887s-5.392654 4.4117871-6.176179 5.5734095c-.5876428.8712168-.6341066 1.9173255.573981 2.7321907 0 0-1.2080876-.8148652 0 0zm3.803898 2.4653699c1.042793 1.018023 2.048431.7851906 2.791514.0421081.990776-.9907768 4.29254-7.1261612 4.29254-7.1261612s-6.135385 3.3017632-7.126162 4.2925399c-.743082.7430824-.988299 1.7611055.042108 2.7915132 0 0-1.030407-1.0304077 0 0zm3.263596 3.1458924c.829386 1.1982932 1.860974 1.1616233 2.732191.5739801 1.161622-.7835241 5.573409-6.1761782 5.573409-6.1761782s-6.652666 2.070414-7.814288 2.8539382c-.871217.5876431-1.306177 1.5401725-.491312 2.7482599 0 0-.814865-1.2080874 0 0zm2.60337 3.7108168c.585502 1.3345315 1.605134 1.4953716 2.572472 1.0847611 1.289784-.5474806 6.649481-4.9992477 6.649481-4.9992477s-6.925492.762986-8.215276 1.3104667c-.967337.4106105-1.576057 1.262645-1.006677 2.6040199 0 0-.56938-1.3413749 0 0zm1.975374 4.5317846c.295243 1.4271015 1.259153 1.7964203 2.290723 1.5959035 1.375426-.2673558 7.543575-3.5074975 7.543575-3.5074975s-6.932786-.6935776-8.308213-.4262219c-1.031569.2005169-1.804135.9073725-1.526085 2.3378159 0 0-.27805-1.4304434 0 0zm.946483 4.4330425c.017515 1.4572167.893246 2.0036728 1.944123 2.0036728 1.40117 0 8.074241-2.0036728 8.074241-2.0036728s-6.673071-2.0036728-8.074241-2.0036728c-1.050877 0-1.944123.5464563-1.944123 2.0036728zm.083229 4.5321926c-.260857 1.4337854.494515 2.137299 1.526085 2.3378158 1.375426.2673558 8.308213-.4262219 8.308213-.4262219s-6.168149-3.2401417-7.543575-3.5074975c-1.03157-.2005168-2.012673.1654601-2.290723 1.5959036 0 0 .27805-1.4304435 0 0zm-.783083 4.4648042c-.529644 1.3576688.077614 2.1923888 1.05197 2.5860543 1.299142.5248875 8.236895 1.1668909 8.236895 1.1668909s-5.436575-4.3575496-6.735717-4.882437c-.974356-.3936656-2.007265-.2216159-2.553148 1.1294918 0 0 .545883-1.3511077 0 0zm-1.807656 4.6012559c-.800345 1.2178814-.379905 2.1606167.491312 2.7482599 1.161622.7835241 7.814288 2.8539381 7.814288 2.8539381s-4.411787-5.392654-5.573409-6.1761782c-.871217-.5876431-1.917326-.6341071-2.732191.5739802 0 0 .814865-1.2080873 0 0zm-2.46537 3.8038989c-1.018023 1.0427925-.78519 2.0484307-.042108 2.7915132.990777.9907767 7.126161 4.2925399 7.126161 4.2925399s-3.301763-6.1353845-4.292539-7.1261611c-.743083-.7430825-1.761106-.9882997-2.791514.042108 0 0 1.030408-1.0304077 0 0zm-3.145892 3.2635958c-1.198293.8293855-1.161623 1.8609739-.57398 2.7321907.783524 1.1616224 6.176178 5.5734095 6.176178 5.5734095s-2.070414-6.6526663-2.853938-7.8142887c-.587643-.8712168-1.540173-1.3061767-2.74826-.4913115 0 0 1.208087-.8148652 0 0zm-3.710817 2.6033698c-1.334531.5855022-1.495372 1.6051344-1.084761 2.5724721.547481 1.2897836 4.999248 6.6494801 4.999248 6.6494801s-.762986-6.9254912-1.310467-8.2152748c-.41061-.9673377-1.262645-1.5760573-2.60402-1.0066774 0 0 1.341375-.5693799 0 0zm-4.5317845 1.975374c-1.4271015.2952428-1.7964203 1.259153-1.5959035 2.2907228.2673558 1.3754264 3.5074975 7.5435754 3.5074975 7.5435754s.6935776-6.9327866.4262218-8.308213c-.2005168-1.0315697-.9073724-1.8041352-2.3378158-1.5260852 0 0 1.4304434-.27805 0 0zm-4.4330425.9464829c-1.4572167.0175146-2.0036728.8932457-2.0036728 1.944123 0 1.4011703 2.0036728 8.0742413 2.0036728 8.0742413s2.0036728-6.673071 2.0036728-8.0742413c0-1.0508773-.5464563-1.944123-2.0036728-1.944123zm-4.5321926.0832288c-1.4337854-.2608571-2.137299.4945156-2.3378158 1.5260853-.2673558 1.3754264.4262219 8.3082132.4262219 8.3082132s3.2401417-6.168149 3.5074975-7.5435756c.2005168-1.0315697-.1654601-2.0126728-1.5959036-2.2907229 0 0 1.4304435.2780501 0 0zm-4.4648042-.7830833c-1.3576688-.5296436-2.1923888.077614-2.5860543 1.0519705-.5248875 1.2991421-1.1668909 8.2368953-1.1668909 8.2368953s4.3575495-5.436575 4.882437-6.7357172c.3936656-.9743565.2216159-2.0072657-1.1294918-2.5531486 0 0 1.3511077.5458829 0 0zm-4.601256-1.8076553c-1.2178813-.8003448-2.1606166-.3799052-2.7482598.4913115-.7835242 1.1616224-2.8539381 7.8142886-2.8539381 7.8142886s5.3926539-4.411787 6.1761782-5.5734094c.5876431-.8712167.6341071-1.9173255-.5739803-2.7321907 0 0 1.2080874.8148652 0 0zm-3.8038988-2.46537c-1.0427925-1.0180229-2.0484307-.7851904-2.7915132-.0421079-.9907767.9907766-4.2925399 7.126161-4.2925399 7.126161s6.1353844-3.3017631 7.1261611-4.2925398c.7430825-.7430825.9882997-1.7611055-.042108-2.7915133 0 0 1.0304077 1.0304078 0 0zm-3.2635958-3.1458923c-.8293855-1.1982932-1.8609739-1.1616233-2.7321907-.5739802-1.1616224.7835242-5.5734095 6.1761783-5.5734095 6.1761783s6.6526663-2.070414 7.8142887-2.8539382c.8712168-.5876432 1.3061767-1.5401725.4913115-2.7482599 0 0 .8148652 1.2080874 0 0zm-2.6033698-3.7108168c-.5855022-1.3345314-1.6051344-1.4953717-2.5724721-1.0847611-1.2897836.5474806-6.6494806 4.9992478-6.6494806 4.9992478s6.9254917-.7629861 8.2152753-1.3104668c.9673377-.4106104 1.5760573-1.2626449 1.0066774-2.6040199 0 0 .5693799 1.341375 0 0zm-1.975374-4.5317846c-.2952428-1.4271014-1.2591531-1.7964204-2.2907228-1.5959035-1.3754264.2673558-7.5435756 3.5074975-7.5435756 3.5074975s6.9327868.6935776 8.3082132.4262219c1.0315697-.2005169 1.8041352-.9073725 1.5260852-2.3378159 0 0 .27805 1.4304434 0 0zm-.9464829-4.4330425c-.0175146-1.4572166-.8932457-2.0036728-1.944123-2.0036728-1.4011698 0-8.0742409 2.0036728-8.0742409 2.0036728s6.6730711 2.0036728 8.0742409 2.0036728c1.0508773 0 1.944123-.5464563 1.944123-2.0036728 0 0 0 1.4572165 0 0zm-.0832289-4.5321926c.2608572-1.4337853-.4945155-2.137299-1.5260853-2.3378158-1.3754263-.2673558-8.3082131.4262218-8.3082131.4262218s6.1681492 3.2401417 7.5435756 3.5074976c1.0315697.2005168 2.0126728-.1654602 2.2907228-1.5959036 0 0-.27805 1.4304434 0 0zm.7830834-4.4648042c.5296436-1.3576687-.077614-2.1923888-1.0519705-2.5860544-1.2991421-.5248874-8.2368949-1.1668907-8.2368949-1.1668907s5.4365748 4.3575494 6.7357168 4.8824369c.9743565.3936655 2.0072656.2216159 2.5531486-1.1294918 0 0-.545883 1.3511077 0 0zm1.8076553-4.6012559c.8003448-1.2178813.3799052-2.1606167-.4913115-2.7482599-1.1616224-.7835242-7.8142887-2.8539381-7.8142887-2.8539381s4.4117871 5.392654 5.5734095 6.1761782c.8712167.5876432 1.9173255.634107 2.7321907-.5739802 0 0-.8148652 1.2080872 0 0zm2.4653699-3.8038989c1.018023-1.0427925.7851905-2.0484307.042108-2.7915132-.9907766-.9907767-7.1261611-4.2925399-7.1261611-4.2925399s3.3017632 6.1353845 4.2925399 7.1261611c.7430825.7430825 1.7611055.9882997 2.7915132-.042108 0 0-1.0304077 1.0304077 0 0zm3.1458924-3.2635959c1.1982932-.8293853 1.1616233-1.8609738.5739802-2.7321906-.7835242-1.1616224-6.1761783-5.5734095-6.1761783-5.5734095s2.070414 6.6526663 2.8539382 7.8142887c.5876431.8712168 1.5401725 1.3061766 2.7482599.4913114 0 0-1.2080874.8148652 0 0zm3.7108168-2.6033697c1.3345314-.5855021 1.4953716-1.6051344 1.0847611-2.5724721-.5474806-1.2897836-4.9992478-6.6494806-4.9992478-6.6494806s.7629861 6.9254917 1.3104668 8.2152753c.4106104.9673377 1.2626449 1.5760573 2.6040199 1.0066774 0 0-1.341375.5693799 0 0zm4.5317846-1.9753739c1.4271014-.2952429 1.7964204-1.2591532 1.5959035-2.2907229-.2673558-1.3754264-3.5074975-7.5435756-3.5074975-7.5435756s-.6935777 6.9327868-.4262219 8.3082132c.2005169 1.0315697.9073725 1.8041352 2.3378159 1.5260853 0 0-1.4304434.2780499 0 0z"/><path id="orn" d="m13.3001382 137.110642c.9921098-1.272753 2.3061431-2.072476 3.5900965-2.387714h.0000001c-.4743583-.102296-.9052498-.243452-1.2671033-.423847-1.879813-.27586-3.1918867-2.103502-3.5785587-3.030885-.0143916-.034497-.0292879-.072356-.0445728-.113434-.0152849.041078-.0301812.078937-.0445728.113434-.1790449.429416-.5565023 1.051854-1.0968637 1.623877-.4530169-.834111-.89323166-1.676185-1.32038072-2.525957.46889712-.652101.76380182-1.475802.76380182-2.369879 0-1.343529-.0992002-2.259909-.40665621-3.06492-2.46540122-6.454323-8.79792468-23.142105-8.79792468-23.142105-.20080828-.528174-.37067363-1.00984-.51229107-1.470328-.21293582-1.8654637-.36883854-3.7482486-.46592136-5.6465685.25936143-1.6094927.93956844-2.9718724 2.01675042-3.8944621-.1839588-.0515487-.36279713-.1083082-.53519968-.170259.33763789-.7774257.92507946-1.3496192 1.84210074-1.6607942v.0688731c-1.38741773-1.2664004-2.08747242-3.1300213-2.08747242-4.8556607 0-4.1246041 1.30127575-5.1215924 1.30127575-11.0543894 0-.9684889-.1571403-1.9392553-.47491089-2.8909746.12881383-.5742257.26311559-1.146377.40284734-1.716396 1.89702087 1.373889 2.52934813 3.9809555 1.72580425 5.9846271.63853045.3364528 1.10123135-.195073 1.59950912-.4821217.01869499 1.3787407-.41774026 1.9839453-.73196509 2.6860851 0 0 .54219487-.0344391 1.03019846-.2754973-.0656339.8862857-.3908219 1.6788761-1.03019846 2.0662429 2.68756534-.550749 4.12095501 1.6529636 4.12095501 4.2702115 0 2.6360821-1.84564633 3.326645-3.04990156 2.8926991-.0512299.369981-.04591956.7619693.10843898 1.1880948-.76492307-.2278026-1.11876596-.7690833-.853966-1.8768253-.44718889-.0978052-.79486727-.3852531-1.09796778-.757619.30234304-.437334.68716159-.7105999 1.09796778-.8265074-.26382492-.9078838.19750608-1.6349483.75908089-1.7907405 0 0-.31737156 1.9284661.81331245 1.9284661.44759986 0 .75908088-.3536033.75908088-1.1708471 0-1.1728943-.52527269-1.8596289-1.84351092-1.8596289-1.07129519 0-2.1145882 1.1361982-2.1145882 3.6847624 0 2.0980769 1.65394215 3.9394857 3.17190245 3.8913764 1.66514303-.0519478 3.2532498-1.7477492 3.2532498-3.8225392 0-1.3435287-.0992002-2.2599084-.40665621-3.0649202-1.44772546-3.7900876-4.22892665-11.1089158-6.27831421-16.5052995.36419856-1.2434876.75451759-2.4758164 1.17032279-3.696352 2.43030527 6.5466397 6.03600613 16.2282212 7.09730803 19.0501549.048577-.1556949.101786-.3108855.1599278-.4652033 1.2451102-3.3046989 7.1157789-19.0784052 8.9461953-24.037245.3882433-1.051751.6235422-2.1671189.6235422-3.3748668 0-3.0374877-2.1959355-4.0980417-3.44302-4.0980417-1.491046 0-3.009248 1.4394403-3.009248 3.2370901 0 1.1390642.4880036 1.8251846 1.1928529 1.8251846 1.6854899 0 1.5831107-1.8168935 1.2470844-2.9615875 1.0489741.5975788 1.6586965 1.6643768 1.491046 2.7894177.5938881.1030767 1.1591697.4600477 1.6808162 1.2052913-.4104436.656743-.9110582 1.15319-1.6808162 1.1708471.3362035 1.7452414-.5859508 2.4833607-1.491046 2.8926992.2863395-1.2808844.4743047-2.7549735-1.2470844-2.7549735-1.2550621 0-2.243358-.2754974-2.8194778-1.308624-.0338879 1.3774612-.1355508 6.8187245-.1355508 6.8187245-.072294 2.0446449 2.1597946 1.9861973 3.5785587 1.3774612-.535426 2.3552057-1.6335147 3.6285666-4.1749448 3.3059784.6167733.3271535 1.2742002 1.0626012 1.2742002 2.4794711-.0004029 1.9172064-1.2278657 4.0411805-2.033684 4.6691603l-.0374036-1.8529831-.0505898 2.5062331c-.8058183-.6279798-2.03328111-2.7519539-2.03368402-4.6691604 0-1.4168698.65742692-2.1523176 1.27420022-2.479471-2.54143015.3225881-3.63951881-.9507727-4.1749448-3.3059785 1.41876406.6087361 3.6508527.6671838 3.5785587-1.3774612 0 0-.1016629-5.4412633-.1355508-6.8187245-.57611978 1.0331266-1.56441569 1.308624-2.81947776 1.308624-1.72138914 0-1.53342396 1.4740892-1.24708447 2.7549735-.24277886-.1097992-.48678513-.2432543-.70740369-.4134571.59287589-1.5828656 1.22905071-3.1445811 1.90708255-4.6837046.01564025.000331.03144275.000494.04740561.000494.70484931 0 1.1928529-.6861204 1.1928529-1.8251847 0-.242162-.02755063-.4778236-.07887413-.7043417.53106016-1.1106057 1.08422322-2.2086215 1.65891969-3.2934781.6227621.7042543 1.1433635 1.5757925 1.4880232 2.6122133.7376172-3.0145983 2.9005234-4.8021753 4.9842082-5.3137635-.4743583-.1022957-.9052497-.2434524-1.2671032-.4238469-1.0592875-.1554494-1.9382951-.8036512-2.5730241-1.5058475.4797632-.7888047.9713137-1.5696494 1.474407-2.3422894.6178387.8130944 1.5106357 1.3392514 2.4267508 1.3678316 1.5179603.0481093 3.1719025-1.7932995 3.1719025-3.8913764 0-1.9162379-.5898126-3.0340125-1.3378669-3.4707148.9128186-1.179374 1.8542841-2.3354547 2.8233533-3.4671991.3805332 2.6590596 1.0359756 4.0109881 1.0359756 6.9382722 0 1.7256393-.7000547 3.5892602-2.0874725 4.8556606v-.0688731c.9170213.311175 1.5044629.8833685 1.8421008 1.6607942-.6904225.2480951-1.4840602.4129331-2.2964352.4932683 2.5538985.834416 3.8971772 3.330255 3.8971772 6.4167298 0 2.1582136-.3120652 3.5124902-1.0974037 5.578119 0 0-6.3325235 16.6877828-8.7979247 23.142105-.307456.8050118-.4066562 1.7213914-.4066562 3.0649202 0 2.07479 1.5881068 3.7705914 3.2532498 3.8225392 1.5179603.0481093 3.1719025-1.7932995 3.1719025-3.8913764 0-2.5485642-1.0432931-3.6847624-2.1145883-3.6847624-1.3182382 0-1.8435109.6867346-1.8435109 1.8596289 0 .8172438.3114811 1.1708471.7590809 1.1708471 1.130684 0 .8133125-1.9284661.8133125-1.9284661.5615748.1557922 1.0229058.8828567.7590808 1.7907404.4108062.1159076.7956248.3891735 1.0979678.8265074-.3031005.372366-.6507789.6598139-1.0979678.757619.2648 1.1077421-.0890429 1.6490228-.8539659 1.8768254.1543585-.4261255.1596688-.8181139.1084389-1.1880948-1.2042552.4339458-3.0499015-.256617-3.0499015-2.8926991 0-2.6172479 1.4333896-4.8209606 4.120955-4.2702115-.6393766-.3873668-.9645646-1.1799572-1.0301985-2.066243.4880036.2410583 1.0301985.2754974 1.0301985.2754974-.3142249-.7021398-.7506601-1.3073444-.7319651-2.6860851.4982778.2870487.9609787.8185745 1.5995091.4821216-1.002156-2.4989194.2290901-5.9363796 3.3616727-6.7496313-1.1464781 1.7029154-1.707932 3.5417139-1.707932 5.3723749 0 5.932797 1.3012758 6.9297853 1.3012758 11.0543894 0 1.7256394-.7000547 3.5892603-2.0874725 4.8556607v-.0688731c.9170213.311175 1.5044629.8833685 1.8421008 1.6607942-.3785406.136024-.7881081.2470206-1.2147795.3327845 1.8500703 1.1151796 2.8155215 3.3073186 2.8155215 5.9239637 0 2.1582135-.3120652 3.5124901-1.0974037 5.5781193 0 0-6.3325235 16.687782-8.7979247 23.142105-.307456.805011-.4066562 1.721391-.4066562 3.06492 0 2.07479 1.5881068 3.770591 3.2532498 3.822539 1.5179603.048109 3.1719025-1.793299 3.1719025-3.891376 0-2.548565-1.0432931-3.684763-2.1145883-3.684763-1.3182382 0-1.8435109.686735-1.8435109 1.859629 0 .817244.3114811 1.170847.7590809 1.170847 1.130684 0 .8133125-1.928466.8133125-1.928466.5615748.155792 1.0229058.882857.7590808 1.790741.4108062.115907.7956248.389173 1.0979678.826507-.3031005.372366-.6507789.659814-1.0979678.757619.2648 1.107742-.0890429 1.649023-.8539659 1.876825.1543585-.426125.1596688-.818114.1084389-1.188094-1.2042552.433945-3.0499015-.256617-3.0499015-2.8927 0-2.617247 1.4333896-4.82096 4.120955-4.270211-.6393766-.387367-.9645646-1.179957-1.0301985-2.066243.4880036.241058 1.0301985.275497 1.0301985.275497-.3142249-.702139-.7506601-1.307344-.7319651-2.686085.4982778.287049.9609787.818575 1.5995091.482122-1.002156-2.49892.2290901-5.93638 3.3616727-6.749632-1.1464781 1.702916-1.707932 3.541714-1.707932 5.372375 0 5.932797 1.3012758 6.929786 1.3012758 11.05439 0 1.725639-.7000547 3.58926-2.0874725 4.85566v-.068873c.9170213.311175 1.5044629.883369 1.8421008 1.660795-.6904225.248095-1.4840602.412933-2.2964352.493268 2.5538985.834416 3.8971772 3.330255 3.8971772 6.41673 0 2.158213-.3120652 3.51249-1.0974037 5.578119 0 0-.3135059.826166-.8281637 2.181949-.6081089-.698971-1.2056067-1.407418-1.7922424-2.125091.2747625-.741656.5144035-1.389404.7085779-1.915448.3882433-1.051751.6235422-2.167119.6235422-3.374867 0-3.037488-2.1959355-4.098042-3.44302-4.098042-1.3041249 0-2.6290239 1.101159-2.9407137 2.580036-.6626722-.986786-1.3063267-1.987411-1.9304384-3.001352 0 0 .6241117 1.013941 0 0zm5.8634858 8.413289c.0023562-.220397-.0197016-.461523-.0705984-.72573.769758-.017657 1.2703726-.514104 1.6808162-1.170847-.5216465-.745243-1.0869281-1.102214-1.6808162-1.205291.1676505-1.125041-.4420719-2.191839-1.491046-2.789418.2944139 1.002939.4094658 2.521901-.7002105 2.882726.7333766 1.019017 1.4875351 2.022078 2.2618549 3.00856 0 0-.7743198-.986482 0 0zm-3.6192241-106.1001167c.6413111.6206099 1.5263084.7343346 2.2066158.4891901.0512299.3699809.0459196.7619693-.1084389 1.1880948.764923-.2278027 1.1187659-.7690834.8539659-1.8768254.4471889-.0978052.7948673-.3852531 1.0979678-.757619-.302343-.437334-.6871616-.7105999-1.0979678-.8265074.2190919-.7539468-.0619109-1.3831938-.4851179-1.6641265-.0785789.104542-.1569353.2092607-.2350686.3141554.0187503.5692254-.0718952 1.4876967-.8522068 1.4876967-.0744428 0-.1451205-.009781-.2112263-.0298491-.3956649.5539551-.7852056 1.1125849-1.1685232 1.6757904 0 0 .3833176-.5632055 0 0zm-8.75594083 84.9285667c.7378372.237416 1.0464724.850824 1.0464724 1.749885 0 .212513-.021062.393675-.06010253.545422.29924509.670391.60644808 1.336451.9214889 1.998059.36292605-.483063.60256799-1.180327.60256799-2.130202 0-2.366253-1.17164764-4.394484-3.38250233-4.354729.28137528.735203.57211579 1.465774.87207557 2.191565 0 0-.29995978-.725791 0 0zm-1.04816318-2.655519c.27436675-.410547.42538446-.944563.46783339-1.517771-.35969587.177678-.74883287.243104-.92859418.265226.1505762.418963.30417188.836487.46076079 1.252545 0 0-.15658891-.416058 0 0zm-.50317965-1.370833c.30696502-.650891.69032571-1.263519.67277967-2.557526-.43294471.249412-.83903043.683393-1.35693306.572208.22053315.665249.44861814 1.327055.68415339 1.985318 0 0-.23553525-.658263 0 0zm-.81551449-2.384721c.59658064-1.866952.02111163-4.152926-1.59901453-5.491122.47608527 1.854143 1.00976341 3.68519 1.59901453 5.491122 0 0-.58925112-1.805932 0 0zm7.57854875-23.3308186c.6776671-2.3313993 2.2275135-3.8779925 3.8817659-4.6147909-.0896684-.037155-.176032-.0763576-.2587849-.1176124-1.7707502-.2598558-3.0377281-1.8966535-3.5019819-2.8608587-.0581173.1986118-.1150484.3617576-.1657224.4832232-.349635.8385551-1.4558848 2.4131671-3.05433193 2.9110606 1.34501213.8360608 2.52970063 2.2406672 3.09905523 4.1989782zm-.0001505 20.4137566.0439967 2.179608c.8058183-.62798 2.0332811-2.751954 2.033684-4.669161 0-1.41687-.6574269-2.152317-1.2742002-2.479471 2.5414301.322588 3.6395188-.950772 4.1749448-3.305978-1.4187641.608736-3.6508527.667184-3.5785587-1.377461 0 0 .1016629-5.4412637.1355508-6.8187249.5761198 1.0331266 1.5644157 1.308624 2.8194778 1.308624 1.7213891 0 1.5334239 1.4740889 1.2470844 2.7549739.9050952-.409339 1.8272495-1.147458 1.491046-2.8926996.769758-.0176571 1.2703726-.5141041 1.6808162-1.1708471-.5216465-.7452436-1.0869281-1.1022146-1.6808162-1.2052913.1676505-1.1250409-.4420719-2.1918389-1.491046-2.7894177.3360263 1.1446941.4384055 2.9615876-1.2470844 2.9615876-.7048493 0-1.1928529-.6861204-1.1928529-1.8251847 0-1.7976498 1.518202-3.23709 3.009248-3.23709 1.2470845 0 3.44302 1.060554 3.44302 4.0980416 0 1.207748-.2352989 2.3231159-.6235422 3.3748669-1.8304164 4.9588393-7.7010851 20.7325463-8.9461953 24.0372453-.0151926.040323-.0300484.080707-.0445728.121143-.0145244-.040436-.0293802-.08082-.0445728-.121143-1.2451102-3.304699-7.11577892-19.078406-8.94619529-24.0372453-.38824328-1.051751-.62354224-2.1671189-.62354224-3.3748669 0-3.0374876 2.19593557-4.0980416 3.44302004-4.0980416 1.49104598 0 3.00924803 1.4394402 3.00924803 3.23709 0 1.1390643-.48800359 1.8251847-1.1928529 1.8251847-1.68548994 0-1.58311072-1.8168935-1.24708447-2.9615876-1.04897403.5975788-1.65869648 1.6643768-1.49104597 2.7894177-.59388812.1030767-1.15916969.4600477-1.68081619 1.2052913.41044357.656743.91105822 1.15319 1.68081619 1.1708471-.33620353 1.7452416.58595081 2.4833606 1.49104597 2.8926996-.28633949-1.280885-.47430467-2.7549739 1.24708447-2.7549739 1.25506207 0 2.24335798-.2754974 2.81947776-1.308624.0338879 1.3774612.1355508 6.8187249.1355508 6.8187249.072294 2.044645-2.15979464 1.986197-3.5785587 1.377461.53542599 2.355206 1.63351465 3.628566 4.1749448 3.305978-.6167733.327154-1.27420022 1.062601-1.27420022 2.479471.00040291 1.917207 1.22786572 4.041181 2.03368402 4.669161z"/></g></g></g></g><path id="gloss" d="m172.049394 127.038954c-14.120249 31.23033-45.547081 52.961046-82.049394 52.961046-49.7056275 0-90-40.294373-90-90 0-26.6311514 11.5667983-50.5607322 29.9506062-67.038954-5.1074555 11.2963583-7.9506062 23.8356294-7.9506062 37.038954 0 49.705627 40.2943725 90 90 90 23.074476 0 44.120802-8.683543 60.049394-22.961046z" opacity=".2"/></svg>