<svg xmlns="http://www.w3.org/2000/svg" xmlns:xlink="http://www.w3.org/1999/xlink" id="India" enable-background="new 0 0 512 512" height="512" viewBox="0 0 512 512" width="512"><clipPath id="SVGID_2_"><circle id="SVGID_1_" cx="256.246" cy="254.546" r="232.999"/></clipPath><g opacity=".2"><path d="m256.246 507.502c-135.254 0-245.291-110.037-245.291-245.29 0-135.254 110.037-245.29 245.291-245.29 135.253 0 245.29 110.036 245.29 245.29 0 135.253-110.037 245.29-245.29 245.29z"/></g><path clip-rule="evenodd" d="m256.246 499.502c-135.254 0-245.291-110.037-245.291-245.29 0-135.254 110.037-245.29 245.291-245.29 135.253 0 245.29 110.036 245.29 245.29 0 135.253-110.037 245.29-245.29 245.29z" fill="#fff" fill-rule="evenodd"/><g><path clip-path="url(#SVGID_2_)" d="m15 18.333h481v157.223h-481z" fill="#f93"/><path clip-path="url(#SVGID_2_)" d="m15 175.556h481v157.221h-481z" fill="#fff"/><path clip-path="url(#SVGID_2_)" d="m15 332.777h481v157.223h-481z" fill="#128807"/><circle clip-path="url(#SVGID_2_)" cx="255.5" cy="254.166" fill="#008" r="62.888"/><circle clip-path="url(#SVGID_2_)" cx="255.5" cy="254.167" fill="#fff" r="55.028"/><g fill="#008"><circle clip-path="url(#SVGID_2_)" cx="255.5" cy="254.167" r="11.005"/><circle clip-path="url(#SVGID_2_)" cx="310.057" cy="261.349" r="2.752"/><path clip-path="url(#SVGID_2_)" d="m255.5 309.195 1.886-33.018-1.886-15.722-1.886 15.722z"/><circle clip-path="url(#SVGID_2_)" cx="306.339" cy="275.225" r="2.751"/><path clip-path="url(#SVGID_2_)" d="m241.259 307.318 10.367-31.402 2.247-15.675-5.893 14.698z"/><circle clip-path="url(#SVGID_2_)" cx="299.156" cy="287.666" r="2.752"/><path clip-path="url(#SVGID_2_)" d="m227.987 301.822 18.142-27.65 6.226-14.559-9.495 12.673z"/><circle clip-path="url(#SVGID_2_)" cx="288.999" cy="297.824" r="2.752"/><path clip-path="url(#SVGID_2_)" d="m216.59 293.077 24.68-22.012 9.783-12.451-12.451 9.782z"/><circle clip-path="url(#SVGID_2_)" cx="276.558" cy="305.006" r="2.752"/><path clip-path="url(#SVGID_2_)" d="m207.845 281.681 29.536-14.875 12.673-9.495-14.559 6.228z"/><circle clip-path="url(#SVGID_2_)" cx="262.682" cy="308.723" r="2.752"/><path clip-path="url(#SVGID_2_)" d="m202.347 268.409 32.381-6.723 14.697-5.893-15.675 2.247z"/><circle clip-path="url(#SVGID_2_)" cx="248.318" cy="308.723" r="2.752"/><path clip-path="url(#SVGID_2_)" d="m200.472 254.167 33.018 1.886 15.723-1.886-15.723-1.886z"/><circle clip-path="url(#SVGID_2_)" cx="234.442" cy="305.006" r="2.752"/><path clip-path="url(#SVGID_2_)" d="m202.347 239.924 31.403 10.368 15.675 2.247-14.697-5.892z"/><circle clip-path="url(#SVGID_2_)" cx="222.001" cy="297.824" r="2.752"/><path clip-path="url(#SVGID_2_)" d="m207.845 226.653 27.65 18.143 14.559 6.227-12.673-9.495z"/><circle clip-path="url(#SVGID_2_)" cx="211.843" cy="287.666" r="2.751"/><path clip-path="url(#SVGID_2_)" d="m216.59 215.256 22.012 24.681 12.451 9.783-9.783-12.451z"/><circle clip-path="url(#SVGID_2_)" cx="204.661" cy="275.225" r="2.752"/><path clip-path="url(#SVGID_2_)" d="m227.987 206.511 14.873 29.536 9.494 12.673-6.226-14.559z"/><circle clip-path="url(#SVGID_2_)" cx="200.943" cy="261.349" r="2.752"/><path clip-path="url(#SVGID_2_)" d="m241.259 201.014 6.722 32.379 5.893 14.699-2.247-15.675z"/><circle clip-path="url(#SVGID_2_)" cx="200.943" cy="246.984" r="2.751"/><path clip-path="url(#SVGID_2_)" d="m255.5 199.139-1.886 33.017 1.886 15.723 1.886-15.723z"/><circle clip-path="url(#SVGID_2_)" cx="204.661" cy="233.109" r="2.752"/><path clip-path="url(#SVGID_2_)" d="m269.741 201.014-10.367 31.403-2.247 15.675 5.893-14.699z"/><circle clip-path="url(#SVGID_2_)" cx="211.843" cy="220.668" r="2.751"/><path clip-path="url(#SVGID_2_)" d="m283.014 206.511-18.143 27.65-6.227 14.559 9.495-12.673z"/><circle clip-path="url(#SVGID_2_)" cx="222.001" cy="210.51" r="2.752"/><path clip-path="url(#SVGID_2_)" d="m294.41 215.256-24.68 22.013-9.783 12.451 12.451-9.783z"/><circle clip-path="url(#SVGID_2_)" cx="234.442" cy="203.328" r="2.752"/><path clip-path="url(#SVGID_2_)" d="m303.155 226.653-29.536 14.874-12.673 9.495 14.559-6.227z"/><circle clip-path="url(#SVGID_2_)" cx="248.318" cy="199.61" r="2.752"/><path clip-path="url(#SVGID_2_)" d="m308.653 239.924-32.381 6.723-14.697 5.892 15.675-2.247z"/><circle clip-path="url(#SVGID_2_)" cx="262.682" cy="199.61" r="2.752"/><path clip-path="url(#SVGID_2_)" d="m310.528 254.167-33.018-1.886-15.723 1.886 15.723 1.886z"/><circle clip-path="url(#SVGID_2_)" cx="276.558" cy="203.328" r="2.752"/><path clip-path="url(#SVGID_2_)" d="m308.653 268.409-31.403-10.368-15.675-2.247 14.697 5.893z"/><circle clip-path="url(#SVGID_2_)" cx="288.999" cy="210.51" r="2.752"/><path clip-path="url(#SVGID_2_)" d="m303.155 281.681-27.65-18.143-14.559-6.228 12.673 9.495z"/><circle clip-path="url(#SVGID_2_)" cx="299.156" cy="220.668" r="2.752"/><path clip-path="url(#SVGID_2_)" d="m294.41 293.077-22.012-24.681-12.451-9.782 9.783 12.451z"/><circle clip-path="url(#SVGID_2_)" cx="306.339" cy="233.109" r="2.751"/><path clip-path="url(#SVGID_2_)" d="m283.014 301.822-14.874-29.536-9.495-12.673 6.227 14.559z"/><circle clip-path="url(#SVGID_2_)" cx="310.057" cy="246.984" r="2.751"/><path clip-path="url(#SVGID_2_)" d="m269.741 307.318-6.722-32.379-5.893-14.698 2.247 15.675z"/></g></g><g opacity=".2"><path clip-rule="evenodd" d="m256.246 37.382c-119.383 0-216.163 96.78-216.163 216.164 0 5.198.195 10.352.556 15.458 42.158 53.583 122.197 89.762 214.014 89.762 94.405 0 176.355-38.246 217.484-94.332.179-3.607.272-7.236.272-10.888 0-119.383-96.78-216.164-216.163-216.164z" fill="#fff" fill-rule="evenodd"/></g></svg>