<svg xmlns="http://www.w3.org/2000/svg" xmlns:xlink="http://www.w3.org/1999/xlink" id="Слой_1" enable-background="new 0 0 449.994 450" height="450" viewBox="0 0 449.994 450" width="449.994"><radialGradient id="XMLID_32_" cx="224.997" cy="225.068" gradientUnits="userSpaceOnUse" r="225.032"><stop offset=".4551" stop-color="#fff"/><stop offset=".5935" stop-color="#fdfdfd"/><stop offset=".655" stop-color="#f6f6f6"/><stop offset=".7013" stop-color="#e9e9e9"/><stop offset=".74" stop-color="#d7d7d7"/><stop offset=".7739" stop-color="#c0c0c0"/><stop offset=".8045" stop-color="#a3a3a3"/><stop offset=".8326" stop-color="#808080"/><stop offset=".8588" stop-color="#585858"/><stop offset=".8824" stop-color="#2d2d2d"/><stop offset=".8933" stop-color="#161616"/><stop offset=".9438" stop-color="#fff"/><stop offset="1" stop-color="#0e0e0e"/></radialGradient><g><g clip-rule="evenodd" fill-rule="evenodd"><path d="m437.14 149.869h-424.286c-8.322 23.494-12.854 48.787-12.854 75.128 0 26.347 4.532 51.64 12.854 75.134h424.286c8.322-23.494 12.854-48.787 12.854-75.134 0-26.341-4.532-51.634-12.854-75.128z" fill="#006"/><path d="m12.854 149.869h424.286c-30.933-87.312-114.25-149.869-212.143-149.869-97.895 0-181.213 62.557-212.143 149.869z" fill="#fff"/><path d="m437.14 300.131h-424.286c30.93 87.315 114.247 149.866 212.143 149.866 97.893 0 181.21-62.551 212.143-149.866z" fill="#f00"/><path d="m225 450c123.922 0 224.994-101.075 224.994-225.003 0-123.922-101.072-224.997-224.994-224.997-123.925 0-225 101.075-225 224.997 0 123.928 101.075 225.003 225 225.003z" fill="url(#XMLID_32_)" opacity=".25"/></g></g></svg>